<?xml version="1.0" encoding="iso-8859-1"?>
<!-- Generator: Adobe Illustrator 19.0.0, SVG Export Plug-In . SVG Version: 6.00 Build 0)  -->
<svg version="1.1" id="Layer_1" xmlns="http://www.w3.org/2000/svg" xmlns:xlink="http://www.w3.org/1999/xlink" x="0px" y="0px"
	 viewBox="0 0 512 512" style="enable-background:new 0 0 512 512;" xml:space="preserve">
<g>
	<path style="fill:#458FDE;" d="M470.128,504.05H41.872c-17.564,0-31.801-14.237-31.801-31.801V39.752
		c0-17.564,14.237-31.801,31.801-31.801h428.257c17.564,0,31.801,14.237,31.801,31.801v432.497
		C501.93,489.812,487.692,504.05,470.128,504.05z"/>
	<path style="fill:#458FDE;" d="M501.93,39.752c0-17.564-14.237-31.801-31.801-31.801H41.872c-17.564,0-31.801,14.237-31.801,31.801
		v40.282H501.93V39.752z"/>
</g>
<path style="fill:#E5E5E5;" d="M10.07,80.033v392.215c0,17.564,14.237,31.801,31.801,31.801h428.257
	c17.564,0,31.801-14.237,31.801-31.801V80.033H10.07z"/>
<path style="fill:#4F5AA8;" d="M67.313,7.95H41.872c-17.564,0-31.801,14.237-31.801,31.801v40.282h25.441V39.752
	C35.511,22.188,49.749,7.95,67.313,7.95z"/>
<path style="fill:#CCCCCC;" d="M35.511,472.248V80.033H10.07v392.215c0,17.564,14.237,31.801,31.801,31.801h25.441
	C49.749,504.05,35.511,489.812,35.511,472.248z"/>
<circle style="fill:#FF7452;" cx="73.673" cy="43.992" r="14.841"/>
<circle style="fill:#AFF078;" cx="139.395" cy="43.992" r="14.841"/>
<g>
	<circle style="fill:#FFD652;" cx="205.118" cy="43.992" r="14.841"/>
	<polygon style="fill:#FFD652;" points="404.583,246.88 341.62,183.917 340.803,184.733 340.803,183.917 171.197,183.917 
		171.197,184.733 170.38,183.917 107.417,246.88 146.395,285.858 171.197,261.056 171.197,400.166 340.803,400.166 340.803,261.056 
		365.605,285.858 	"/>
</g>
<polygon style="fill:#FB9D46;" points="171.197,183.917 171.197,184.733 170.38,183.917 107.417,246.88 146.395,285.858 
	171.197,261.056 171.197,400.166 274.993,400.166 184.889,183.917 "/>
<g>
	<polygon style="fill:#FF7452;" points="292.041,224.199 256,183.917 315.362,183.917 	"/>
	<polygon style="fill:#FF7452;" points="219.959,224.199 256,183.917 196.638,183.917 	"/>
</g>
<path d="M470.128,0H41.872C19.952,0,2.12,17.832,2.12,39.752v432.497C2.12,494.168,19.952,512,41.872,512h101.764
	c4.392,0,7.95-3.56,7.95-7.95c0-4.391-3.559-7.95-7.95-7.95H41.872c-13.151,0-23.851-10.699-23.851-23.851V87.983h346.104
	c4.392,0,7.95-3.56,7.95-7.95c0-4.391-3.559-7.95-7.95-7.95H18.021V39.752c0-13.152,10.7-23.851,23.851-23.851h428.257
	c13.151,0,23.851,10.699,23.851,23.851v32.331h-87.453c-4.392,0-7.95,3.56-7.95,7.95c0,4.391,3.559,7.95,7.95,7.95h87.453v384.265
	c0,13.152-10.7,23.851-23.851,23.851H186.037c-4.392,0-7.95,3.56-7.95,7.95c0,4.391,3.559,7.95,7.95,7.95h284.091
	c21.92,0,39.752-17.832,39.752-39.752V39.752C509.88,17.832,492.048,0,470.128,0z"/>
<path d="M50.882,43.992c0,12.567,10.224,22.791,22.791,22.791c12.567,0,22.791-10.224,22.791-22.791S86.24,21.201,73.673,21.201
	S50.882,31.425,50.882,43.992z M80.563,43.992c0,3.799-3.091,6.89-6.89,6.89c-3.799,0-6.89-3.091-6.89-6.89
	c0-3.799,3.091-6.89,6.89-6.89C77.472,37.101,80.563,40.193,80.563,43.992z"/>
<path d="M116.605,43.992c0,12.567,10.224,22.791,22.791,22.791s22.791-10.224,22.791-22.791s-10.224-22.791-22.791-22.791
	S116.605,31.425,116.605,43.992z M146.286,43.992c0,3.799-3.091,6.89-6.89,6.89s-6.89-3.091-6.89-6.89c0-3.799,3.091-6.89,6.89-6.89
	S146.286,40.193,146.286,43.992z"/>
<path d="M182.327,43.992c0,12.567,10.224,22.791,22.791,22.791s22.791-10.224,22.791-22.791s-10.224-22.791-22.791-22.791
	S182.327,31.425,182.327,43.992z M212.008,43.992c0,3.799-3.091,6.89-6.89,6.89c-3.799,0-6.89-3.091-6.89-6.89
	c0-3.799,3.091-6.89,6.89-6.89C208.917,37.101,212.008,40.193,212.008,43.992z"/>
<path d="M401.756,54.592c0-4.391-3.559-7.95-7.95-7.95H287.801c-4.392,0-7.95,3.56-7.95,7.95s3.559,7.95,7.95,7.95h106.004
	C398.197,62.542,401.756,58.983,401.756,54.592z"/>
<path d="M455.288,62.542c4.392,0,7.95-3.56,7.95-7.95s-3.559-7.95-7.95-7.95h-27.561c-4.392,0-7.95,3.56-7.95,7.95
	s3.559,7.95,7.95,7.95H455.288z"/>
<path d="M81.415,250.909c-3.106-3.105-8.139-3.105-11.244,0L34.13,286.95c-3.105,3.105-3.105,8.139,0,11.243l34.981,34.981
	c1.553,1.552,3.588,2.329,5.622,2.329s4.069-0.776,5.622-2.329c3.105-3.105,3.105-8.139,0-11.243l-29.362-29.36l30.42-30.42
	C84.519,259.048,84.519,254.012,81.415,250.909z"/>
<path d="M431.645,333.174c1.553,1.552,3.588,2.329,5.622,2.329s4.069-0.776,5.622-2.329l34.981-34.981
	c3.105-3.105,3.105-8.139,0-11.243l-36.041-36.041c-3.106-3.105-8.139-3.105-11.244,0c-3.105,3.105-3.105,8.139,0,11.243
	l30.42,30.42l-29.36,29.36C428.541,325.035,428.541,330.07,431.645,333.174z"/>
<path d="M340.803,408.116c4.392,0,7.95-3.56,7.95-7.95V280.25l11.229,11.229c1.491,1.492,3.513,2.329,5.622,2.329
	s4.13-0.837,5.622-2.329l38.978-38.978c3.105-3.105,3.105-8.139,0-11.243l-62.962-62.963c-1.588-1.588-3.814-2.43-6.028-2.318
	c-0.136-0.006-0.272-0.011-0.41-0.011H171.198c-0.138,0-0.275,0.003-0.41,0.011c-2.229-0.106-4.439,0.731-6.028,2.318
	l-62.963,62.964c-3.105,3.105-3.105,8.139,0,11.243l38.978,38.978c1.491,1.492,3.513,2.329,5.622,2.329s4.13-0.837,5.622-2.329
	l11.228-11.23v119.916c0,4.391,3.559,7.95,7.95,7.95H340.803z M337.761,192.078c0.377,0.156,0.764,0.282,1.153,0.377l54.425,54.425
	l-27.734,27.734l-19.179-19.18c-2.275-2.274-5.695-2.955-8.665-1.724c-2.971,1.231-4.908,4.13-4.908,7.345v131.16H263.95v-187.49
	l22.167,24.774c1.516,1.695,3.675,2.649,5.924,2.649c0.271,0,0.543-0.014,0.815-0.042c2.535-0.261,4.79-1.72,6.067-3.925
	l21.024-36.314h17.35C337.447,191.942,337.602,192.013,337.761,192.078z M273.781,191.867h27.792l-10.918,18.859L273.781,191.867z
	 M238.219,191.867l-16.874,18.859l-10.918-18.859H238.219z M174.239,253.71c-2.971-1.231-6.39-0.549-8.665,1.724l-19.179,19.18
	l-27.734-27.734l54.425-54.425c0.389-0.095,0.775-0.222,1.153-0.377c0.158-0.066,0.314-0.136,0.465-0.211h17.35l21.024,36.315
	c1.276,2.205,3.532,3.665,6.067,3.925c0.272,0.028,0.544,0.042,0.815,0.042c2.248,0,4.408-0.954,5.924-2.649l22.167-24.775v187.49
	h-68.903V261.056C179.147,257.84,177.21,254.941,174.239,253.71z"/>
<path d="M311.122,252.29h-27.561c-4.392,0-7.95,3.56-7.95,7.95s3.559,7.95,7.95,7.95h27.561c4.392,0,7.95-3.56,7.95-7.95
	S315.514,252.29,311.122,252.29z"/>
<path d="M200.878,268.19h27.561c4.392,0,7.95-3.56,7.95-7.95s-3.559-7.95-7.95-7.95h-27.561c-4.392,0-7.95,3.56-7.95,7.95
	S196.486,268.19,200.878,268.19z"/>
<g>
</g>
<g>
</g>
<g>
</g>
<g>
</g>
<g>
</g>
<g>
</g>
<g>
</g>
<g>
</g>
<g>
</g>
<g>
</g>
<g>
</g>
<g>
</g>
<g>
</g>
<g>
</g>
<g>
</g>
</svg>
