<?xml version="1.0" encoding="iso-8859-1"?>
<!-- Generator: Adobe Illustrator 19.0.0, SVG Export Plug-In . SVG Version: 6.00 Build 0)  -->
<svg version="1.1" id="Layer_1" xmlns="http://www.w3.org/2000/svg" xmlns:xlink="http://www.w3.org/1999/xlink" x="0px" y="0px"
	 viewBox="0 0 496 496" style="enable-background:new 0 0 496 496;" xml:space="preserve">
<rect x="416" y="200" style="fill:#EE5656;" width="32" height="16"/>
<g>
	<rect x="416" y="136" style="fill:#7AC943;" width="32" height="16"/>
	<rect x="416" y="264" style="fill:#7AC943;" width="32" height="72"/>
</g>
<path style="fill:#EE5656;" d="M264,208c31.2,0,56,24.8,56,56s-24.8,56-56,56c-19.2,0-36-9.6-45.6-24h55.2c3.2,0,5.6-1.6,7.2-4
	c0.8-1.6,0.8-2.4,0.8-4s0-2.4-0.8-4L240,213.6C247.2,210.4,255.2,208,264,208z"/>
<path style="fill:#FF7D00;" d="M226.4,222.4l32.8,57.6h-48.8c-1.6-4.8-2.4-10.4-2.4-16C208,248,215.2,232.8,226.4,222.4z"/>
<path style="fill:#FF9900;" d="M192,163.2l26.4,45.6c-16,12.8-26.4,32.8-26.4,55.2c0,5.6,0.8,11.2,1.6,16H124L192,163.2z"/>
<g>
	<path style="fill:#6CD3D8;" d="M72,104v312H16V104H72z M64,400v-32H24v32H64z M64,352v-32H24v32H64z M64,304v-32H24v32H64z M64,256
		v-32H24v32H64z M64,208v-32H24v32H64z M64,160v-32H24v32H64z"/>
	<path style="fill:#6CD3D8;" d="M480,104v312h-96V104H480z M464,400v-32h-64v32H464z M464,352V248h-64v104H464z M464,232v-48h-64v48
		H464z M464,168v-48h-64v48H464z"/>
</g>
<path style="fill:#FFF8EF;" d="M88,104v184v128h280v-72V104H88z M328,360c-8.8,0-16-7.2-16-16c0-5.6,3.2-11.2,8-13.6v-20.8
	c-13.6,16-33.6,27.2-56,27.2c-28,0-52.8-16-64-40h-89.6c-3.2,0-5.6-1.6-7.2-4c-0.8-1.6-0.8-2.4-0.8-4s0-3.2,0.8-4L184.8,144
	c3.2-4.8,11.2-4.8,13.6,0l33.6,56c9.6-4.8,20.8-8,32-8c22.4,0,42.4,10.4,56,27.2v-20.8c-4.8-2.4-8-8-8-13.6c0-8.8,7.2-16,16-16
	s16,7.2,16,16c0,5.6-3.2,11.2-8,13.6v132.8c4.8,2.4,8,8,8,13.6C344,352.8,336.8,360,328,360z"/>
<rect x="16" y="432" style="fill:#6CD3D8;" width="464" height="24"/>
<path style="fill:#42210B;" d="M496,32v432c0,4-4,8-8,8H8c-4,0-8-4-8-8V32c0-4.8,4-8,8-8h480C492,24,496,27.2,496,32z M480,456v-24
	H16v24H480z M480,416V104h-96v312H480z M480,88V40H144H16v48h128H480z M368,416v-72V104H88v184v128H368z M72,416V104H16v312H72z"/>
<path style="fill:#6CD3D8;" d="M144,40H16v48h128h336V40H144z M48,80c-8.8,0-16-7.2-16-16s7.2-16,16-16s16,7.2,16,16S56.8,80,48,80z
	 M96,80c-8.8,0-16-7.2-16-16s7.2-16,16-16s16,7.2,16,16S104.8,80,96,80z M144,80c-8.8,0-16-7.2-16-16s7.2-16,16-16s16,7.2,16,16
	S152.8,80,144,80z"/>
<g>
	<rect x="400" y="368" style="fill:#42210B;" width="64" height="32"/>
	<path style="fill:#42210B;" d="M464,248v104h-64V248H464z M448,336v-72h-32v72H448z"/>
	<path style="fill:#42210B;" d="M464,184v48h-64v-48H464z M448,216v-16h-32v16H448z"/>
	<path style="fill:#42210B;" d="M464,120v48h-64v-48H464z M448,152v-16h-32v16H448z"/>
	<path style="fill:#42210B;" d="M328,168c8.8,0,16,7.2,16,16c0,5.6-3.2,11.2-8,13.6v132.8c4.8,2.4,8,8,8,13.6c0,8.8-7.2,16-16,16
		s-16-7.2-16-16c0-5.6,3.2-11.2,8-13.6v-20.8c-13.6,16-33.6,27.2-56,27.2c-28,0-52.8-16-64-40h-89.6c-3.2,0-5.6-1.6-7.2-4
		c-0.8-1.6-0.8-2.4-0.8-4s0-2.4,0.8-4L184.8,144c3.2-4.8,11.2-4.8,13.6,0l33.6,56c9.6-4.8,20.8-8,32-8c22.4,0,42.4,10.4,56,27.2
		v-20.8c-4.8-2.4-8-8-8-13.6C312,175.2,319.2,168,328,168z M320,264c0-31.2-24.8-56-56-56c-8.8,0-16.8,2.4-24,5.6l40.8,70.4
		c0.8,1.6,0.8,2.4,0.8,4s0,2.4-0.8,4c-1.6,2.4-4,4-7.2,4h-55.2c10.4,14.4,27.2,24,45.6,24C295.2,320,320,295.2,320,264z M259.2,280
		l-32.8-57.6C215.2,232.8,208,248,208,264c0,5.6,0.8,11.2,2.4,16H259.2z M218.4,208.8L192,163.2L124.8,280h69.6
		c-0.8-4.8-1.6-10.4-1.6-16C192,241.6,202.4,221.6,218.4,208.8z"/>
	<circle style="fill:#42210B;" cx="144" cy="64" r="16"/>
	<circle style="fill:#42210B;" cx="96" cy="64" r="16"/>
	<rect x="24" y="368" style="fill:#42210B;" width="40" height="32"/>
	<rect x="24" y="320" style="fill:#42210B;" width="40" height="32"/>
	<rect x="24" y="272" style="fill:#42210B;" width="40" height="32"/>
	<rect x="24" y="224" style="fill:#42210B;" width="40" height="32"/>
	<rect x="24" y="176" style="fill:#42210B;" width="40" height="32"/>
	<rect x="24" y="128" style="fill:#42210B;" width="40" height="32"/>
	<circle style="fill:#42210B;" cx="48" cy="64" r="16"/>
</g>
<g>
</g>
<g>
</g>
<g>
</g>
<g>
</g>
<g>
</g>
<g>
</g>
<g>
</g>
<g>
</g>
<g>
</g>
<g>
</g>
<g>
</g>
<g>
</g>
<g>
</g>
<g>
</g>
<g>
</g>
</svg>
