<?xml version="1.0" encoding="UTF-8"?><svg version="1.1" id="Layer_1" xmlns="http://www.w3.org/2000/svg" xmlns:xlink="http://www.w3.org/1999/xlink" x="0px" y="0px" viewBox="0 0 1000 1000" enable-background="new 0 0 1000 1000" xml:space="preserve" width="1000px" height="1000px">
<ellipse fill="#323845" cx="506.128" cy="611.985" rx="267.247" ry="37.06"/>
<path fill="#323845" d="M655.483,728.108H351.751c-9.828,0-16.258-7.895-14.4-17.439l21.838-112.237h288.857l21.839,112.237
	C671.742,720.213,665.311,728.108,655.483,728.108z"/>
<path fill="#333E49" d="M593.939,271.892h62.765c9.912,0,17.948,8.036,17.948,17.948v14.104c0,9.912-8.036,17.948-17.948,17.948
	h-62.765c-9.912,0-17.948-8.036-17.948-17.948V289.84C575.991,279.928,584.027,271.892,593.939,271.892z"/>
<g>
	<path fill="#323845" d="M656.704,324.892h-62.765c-11.551,0-20.948-9.397-20.948-20.948V289.84
		c0-11.551,9.397-20.948,20.948-20.948h62.765c11.551,0,20.948,9.397,20.948,20.948v14.104
		C677.652,315.495,668.255,324.892,656.704,324.892z M593.939,274.892c-8.242,0-14.948,6.706-14.948,14.948v14.104
		c0,8.243,6.706,14.948,14.948,14.948h62.765c8.242,0,14.948-6.706,14.948-14.948V289.84c0-8.242-6.706-14.948-14.948-14.948
		H593.939z"/>
</g>
<path fill="#484E5C" d="M323.032,292.6h360c16.569,0,30,13.431,30,30l0,0v142l0,0h-420l0,0v-142
	C293.032,306.031,306.463,292.6,323.032,292.6L323.032,292.6z"/>
<path fill="#454B56" d="M683.032,292.6h-2.539v172h32.539v-142C712.984,306.052,699.58,292.648,683.032,292.6z"/>
<path fill="#555A66" d="M324.979,292.6h-1.947c-16.548,0.048-29.952,13.452-30,30v142H324.9v-142c0-0.708,0.034-1.408,0.083-2.1
	L324.979,292.6z"/>
<path fill="#38424F" d="M455.173,305.333h94.572c13.76,0,24.915,11.155,24.915,24.915v16.5c0,13.76-11.155,24.915-24.915,24.915
	h-94.572c-13.76,0-24.915-11.155-24.915-24.915v-16.5C430.258,316.488,441.413,305.333,455.173,305.333z"/>
<path fill="#3B4351" d="M455.746,318.497h94.572c13.76,0,24.915,11.155,24.915,24.915v16.5c0,13.76-11.155,24.915-24.915,24.915
	h-94.572c-13.76,0-24.915-11.155-24.915-24.915v-16.5C430.831,329.652,441.986,318.497,455.746,318.497z"/>
<g>
	<path fill="#323845" d="M549.745,375.663h-94.572c-15.944,0-28.915-12.971-28.915-28.915v-16.5
		c0-15.944,12.971-28.915,28.915-28.915h94.572c15.943,0,28.915,12.971,28.915,28.915v16.5
		C578.66,362.692,565.688,375.663,549.745,375.663z M455.173,309.333c-11.533,0-20.915,9.382-20.915,20.915v16.5
		c0,11.533,9.382,20.915,20.915,20.915h94.572c11.532,0,20.915-9.382,20.915-20.915v-16.5c0-11.533-9.383-20.915-20.915-20.915
		H455.173z"/>
</g>
<g>
	<path fill="#323845" d="M713.032,467.6h-420c-1.657,0-3-1.343-3-3v-142c0-18.196,14.804-33,33-33h360c18.196,0,33,14.804,33,33v142
		C716.032,466.257,714.689,467.6,713.032,467.6z M296.032,461.6h414v-139c0-14.888-12.112-27-27-27h-360c-14.888,0-27,12.112-27,27
		V461.6z"/>
</g>
<path fill="#F76E6E" d="M323.032,328.6h360c16.569,0,30,13.431,30,30l0,0v142l0,0h-420l0,0v-142
	C293.032,342.031,306.463,328.6,323.032,328.6L323.032,328.6z"/>
<path fill="#DD5F5F" d="M683.032,328.6h-15.775c16.548,0.048,29.952,13.452,30,30v142h15.775v-142
	C712.984,342.052,699.581,328.648,683.032,328.6z"/>
<path fill="#F48989" d="M339.032,328.6h-16c-16.548,0.048-29.952,13.452-30,30v142h16v-142
	C309.08,342.052,322.484,328.648,339.032,328.6z"/>
<path fill="#DD5F5F" stroke="#DD5F5F" stroke-width="4" stroke-miterlimit="10" d="M609.713,444h67.217
	c3.809,0,6.897,3.088,6.897,6.897v27.191c0,3.809-3.088,6.897-6.897,6.897h-67.217c-3.809,0-6.897-3.088-6.897-6.897v-27.191
	C602.816,447.088,605.904,444,609.713,444z"/>
<path fill="#484E5C" d="M616.282,450.492h54.078c3.809,0,6.897,3.088,6.897,6.897v18.206c0,3.809-3.088,6.897-6.897,6.897h-54.078
	c-3.809,0-6.897-3.088-6.897-6.897v-18.206C609.385,453.58,612.473,450.492,616.282,450.492z"/>
<path fill="#404751" d="M670.36,450.492h-0.051v32h0.051c3.811,0,6.9-3.089,6.9-6.9c0,0,0,0,0,0V457.39
	C677.259,453.58,674.17,450.492,670.36,450.492z"/>
<path fill="#6A6D7A" d="M655.991,450.492h-39.708c-3.811,0-6.9,3.089-6.9,6.9c0,0,0,0,0,0V475.6c0,3.811,3.089,6.9,6.9,6.9l0,0
	h39.708V450.492z"/>
<path fill="#777982" d="M616.283,450.492c-3.811,0-6.9,3.089-6.9,6.9c0,0,0,0,0,0V475.6c0,3.811,3.089,6.9,6.9,6.9l0,0h1.875v-32
	L616.283,450.492z"/>
<g>
	<path fill="#323845" d="M655.991,484h-39.708c-4.632,0-8.4-3.768-8.4-8.4v-18.208c0-4.632,3.769-8.4,8.4-8.4h39.708
		c0.828,0,1.5,0.671,1.5,1.5V482.5C657.491,483.329,656.819,484,655.991,484z M616.283,451.992c-2.978,0-5.4,2.422-5.4,5.4V475.6
		c0,2.978,2.423,5.4,5.4,5.4h38.208v-29.008H616.283z"/>
</g>
<path fill="#DD5F5F" stroke="#DD5F5F" stroke-width="4" stroke-miterlimit="10" d="M608.816,338.158h69.011c3.314,0,6,2.686,6,6
	v69.011c0,3.314-2.686,6-6,6h-69.011c-3.314,0-6-2.686-6-6v-69.011C602.816,340.844,605.502,338.158,608.816,338.158z"/>
<path fill="#DD5F5F" stroke="#DD5F5F" stroke-width="4" stroke-linecap="round" stroke-linejoin="round" d="M553.551,468.938
	h-31.193v16h31.193c4.418,0,8-3.582,8-8l0,0C561.551,472.52,557.969,468.938,553.551,468.938z"/>
<path fill="#DD5F5F" stroke="#DD5F5F" stroke-width="4" stroke-linecap="round" stroke-linejoin="round" d="M485.66,468.938h31.193
	v16H485.66c-4.418,0-8-3.582-8-8l0,0C477.66,472.52,481.242,468.938,485.66,468.938z"/>
<path fill="#484E5C" d="M551.551,465.938h-31.193v16h31.193c4.418,0,8-3.582,8-8l0,0
	C559.551,469.52,555.969,465.938,551.551,465.938z"/>
<path fill="#484E5C" d="M483.66,465.938h31.193v16H483.66c-4.418,0-8-3.582-8-8l0,0C475.66,469.52,479.242,465.938,483.66,465.938z"/>
<path fill="#DD5F5F" stroke="#DD5F5F" stroke-width="4" stroke-miterlimit="10" d="M345.094,361.492h208c6.627,0,12,5.373,12,12v74
	c0,6.627-5.373,12-12,12h-208c-6.627,0-12-5.373-12-12v-74C333.094,366.865,338.467,361.492,345.094,361.492z"/>
<path fill="#484E5C" d="M345.094,346.492h208c6.627,0,12,5.373,12,12v74c0,6.627-5.373,12-12,12h-208c-6.627,0-12-5.373-12-12v-74
	C333.094,351.865,338.467,346.492,345.094,346.492z"/>
<g>
	<path fill="#323845" d="M553.094,446.492h-208c-7.72,0-14-6.28-14-14v-74c0-7.72,6.28-14,14-14h208c7.72,0,14,6.28,14,14v74
		C567.094,440.212,560.813,446.492,553.094,446.492z M345.094,348.492c-5.514,0-10,4.486-10,10v74c0,5.514,4.486,10,10,10h208
		c5.514,0,10-4.486,10-10v-74c0-5.514-4.486-10-10-10H345.094z"/>
</g>
<path fill="#6A6D7A" d="M345.094,352.492h208c6.627,0,12,5.373,12,12v74c0,6.627-5.373,12-12,12h-208c-6.627,0-12-5.373-12-12v-74
	C333.094,357.865,338.467,352.492,345.094,352.492z"/>
<g>
	<path fill="#323845" d="M553.094,451.992h-208c-7.444,0-13.5-6.056-13.5-13.5v-74c0-7.444,6.056-13.5,13.5-13.5h208
		c7.444,0,13.5,6.056,13.5,13.5v74C566.594,445.936,560.538,451.992,553.094,451.992z M345.094,353.992c-5.79,0-10.5,4.71-10.5,10.5
		v74c0,5.79,4.71,10.5,10.5,10.5h208c5.79,0,10.5-4.71,10.5-10.5v-74c0-5.79-4.71-10.5-10.5-10.5H345.094z"/>
</g>
<g>
	<path fill="#323845" d="M713.032,503.6h-420c-1.657,0-3-1.343-3-3v-142c0-18.196,14.804-33,33-33h360c18.196,0,33,14.804,33,33v142
		C716.032,502.257,714.689,503.6,713.032,503.6z M296.032,497.6h414v-139c0-14.888-12.112-27-27-27h-360c-14.888,0-27,12.112-27,27
		V497.6z"/>
</g>
<g>
	<path fill="#323845" d="M553.257,451.992h-86c-0.829,0-1.5-0.671-1.5-1.5v-98c0-0.829,0.671-1.5,1.5-1.5h86
		c7.444,0,13.5,6.056,13.5,13.5v74C566.757,445.936,560.701,451.992,553.257,451.992z M468.757,448.992h84.5
		c5.79,0,10.5-4.71,10.5-10.5v-74c0-5.79-4.71-10.5-10.5-10.5h-84.5V448.992z"/>
</g>
<path fill="#484E5C" d="M483.179,360.414h66.156c4.418,0,8,3.582,8,8v66.156c0,4.418-3.582,8-8,8h-66.156c-4.418,0-8-3.582-8-8
	v-66.156C475.179,363.996,478.761,360.414,483.179,360.414z"/>
<path fill="#6A6D7A" d="M516.55,407.9l-41.231,28.14c0.706,3.786,4.009,6.531,7.86,6.533h66.156c3.978-0.002,7.35-2.929,7.91-6.868
	L516.55,407.9z"/>
<path opacity="0.2" fill="#2D3039" enable-background="new    " d="M516.55,395.088l-41.231-28.14
	c0.706-3.786,4.009-6.532,7.86-6.534h66.156c3.979,0.002,7.35,2.93,7.91,6.869L516.55,395.088z"/>
<path fill="#3C4252" d="M503.831,373.492h24.852c8.601,0,15.574,6.973,15.574,15.574v24.852c0,8.601-6.973,15.574-15.574,15.574
	h-24.852c-8.601,0-15.574-6.973-15.574-15.574v-24.852C488.257,380.465,495.23,373.492,503.831,373.492z"/>
<path fill="#3C4252" d="M508.617,388.853h15.279c2.761,0,5,2.239,5,5v15.279c0,2.761-2.239,5-5,5h-15.279c-2.761,0-5-2.239-5-5
	v-15.279C503.617,391.092,505.856,388.853,508.617,388.853z"/>
<path fill="#3C4252" d="M534.896,393.853v15.279c0,6.075-4.925,11-11,11h-15.279c-6.075,0-11-4.925-11-11v-15.279
	c0-6.075,4.925-11,11-11h15.279C529.971,382.853,534.896,387.778,534.896,393.853z"/>
<g>
	<path fill="#454B59" d="M523.896,420.632h-15.279c-6.341,0-11.5-5.159-11.5-11.5v-15.279c0-6.341,5.159-11.5,11.5-11.5h15.279
		c6.341,0,11.5,5.159,11.5,11.5v15.279C535.396,415.473,530.237,420.632,523.896,420.632z M508.617,383.353
		c-5.79,0-10.5,4.71-10.5,10.5v15.279c0,5.79,4.71,10.5,10.5,10.5h15.279c5.79,0,10.5-4.71,10.5-10.5v-15.279
		c0-5.79-4.71-10.5-10.5-10.5H508.617z"/>
</g>
<g>
	<path fill="#323845" d="M523.896,419.632h-15.279c-5.79,0-10.5-4.71-10.5-10.5v-15.279c0-5.79,4.71-10.5,10.5-10.5h15.279
		c5.79,0,10.5,4.71,10.5,10.5v15.279C534.396,414.921,529.687,419.632,523.896,419.632z M508.617,384.353
		c-5.238,0-9.5,4.262-9.5,9.5v15.279c0,5.238,4.262,9.5,9.5,9.5h15.279c5.238,0,9.5-4.262,9.5-9.5v-15.279
		c0-5.238-4.262-9.5-9.5-9.5H508.617z"/>
</g>
<g>
	<path fill="#454B59" d="M523.896,414.632h-15.279c-3.032,0-5.5-2.467-5.5-5.5v-15.279c0-3.033,2.468-5.5,5.5-5.5h15.279
		c3.032,0,5.5,2.467,5.5,5.5v15.279C529.396,412.165,526.929,414.632,523.896,414.632z M508.617,389.353c-2.481,0-4.5,2.019-4.5,4.5
		v15.279c0,2.481,2.019,4.5,4.5,4.5h15.279c2.481,0,4.5-2.019,4.5-4.5v-15.279c0-2.481-2.019-4.5-4.5-4.5H508.617z"/>
</g>
<g>
	<path fill="#323845" d="M523.896,413.632h-15.279c-2.481,0-4.5-2.019-4.5-4.5v-15.279c0-2.481,2.019-4.5,4.5-4.5h15.279
		c2.481,0,4.5,2.019,4.5,4.5v15.279C528.396,411.613,526.378,413.632,523.896,413.632z M508.617,390.353c-1.93,0-3.5,1.57-3.5,3.5
		v15.279c0,1.93,1.57,3.5,3.5,3.5h15.279c1.93,0,3.5-1.57,3.5-3.5v-15.279c0-1.93-1.57-3.5-3.5-3.5H508.617z"/>
</g>
<path fill="#323845" d="M511.409,392.645h9.695c2.209,0,4,1.791,4,4v9.695c0,2.209-1.791,4-4,4h-9.695c-2.209,0-4-1.791-4-4v-9.695
	C507.409,394.436,509.2,392.645,511.409,392.645z"/>
<g>
	<path fill="#454B59" d="M521.104,410.84h-9.694c-2.481,0-4.5-2.019-4.5-4.5v-9.695c0-2.481,2.019-4.5,4.5-4.5h9.694
		c2.481,0,4.5,2.019,4.5,4.5v9.695C525.604,408.821,523.585,410.84,521.104,410.84z M511.409,393.145c-1.93,0-3.5,1.57-3.5,3.5
		v9.695c0,1.93,1.57,3.5,3.5,3.5h9.694c1.93,0,3.5-1.57,3.5-3.5v-9.695c0-1.93-1.57-3.5-3.5-3.5H511.409z"/>
</g>
<g>
	<path fill="#323845" d="M521.104,409.84h-9.695c-1.93,0-3.5-1.57-3.5-3.5v-9.695c0-1.93,1.57-3.5,3.5-3.5h9.695
		c1.93,0,3.5,1.57,3.5,3.5v9.695C524.604,408.27,523.034,409.84,521.104,409.84z M511.409,394.145c-1.379,0-2.5,1.122-2.5,2.5v9.695
		c0,1.378,1.121,2.5,2.5,2.5h9.695c1.379,0,2.5-1.122,2.5-2.5v-9.695c0-1.378-1.121-2.5-2.5-2.5H511.409z"/>
</g>
<path fill="#484E5C" d="M613.385,346.727h59.872c2.209,0,4,1.791,4,4v59.872c0,2.209-1.791,4-4,4h-59.872c-2.209,0-4-1.791-4-4
	v-59.872C609.385,348.518,611.176,346.727,613.385,346.727z"/>
<g>
	<path fill="#323845" d="M643.321,407.326c-14.702,0-26.663-11.961-26.663-26.663S628.619,354,643.321,354
		s26.663,11.961,26.663,26.663S658.023,407.326,643.321,407.326z M643.321,357c-13.048,0-23.663,10.615-23.663,23.663
		s10.615,23.663,23.663,23.663s23.663-10.615,23.663-23.663S656.369,357,643.321,357z"/>
</g>
<circle fill="#6A6D7A" cx="643.321" cy="380.663" r="18"/>
<g>
	<path fill="#323845" d="M643.321,400.163c-10.752,0-19.5-8.748-19.5-19.5s8.748-19.5,19.5-19.5s19.5,8.748,19.5,19.5
		S654.073,400.163,643.321,400.163z M643.321,364.163c-9.098,0-16.5,7.402-16.5,16.5s7.402,16.5,16.5,16.5s16.5-7.402,16.5-16.5
		S652.419,364.163,643.321,364.163z"/>
</g>
<circle fill="#30B2C4" cx="643.321" cy="380.663" r="12.67"/>
<g>
	<path fill="#323845" d="M643.321,394.833c-7.813,0-14.17-6.356-14.17-14.17s6.356-14.17,14.17-14.17s14.17,6.356,14.17,14.17
		S651.135,394.833,643.321,394.833z M643.321,369.493c-6.159,0-11.17,5.011-11.17,11.17s5.011,11.17,11.17,11.17
		s11.17-5.011,11.17-11.17S649.48,369.493,643.321,369.493z"/>
</g>
<g>
	<path fill="#FFFFFF" d="M636.909,382.163c-0.001,0-0.001,0-0.002,0c-0.828-0.001-1.499-0.673-1.498-1.501
		c0.005-4.358,3.554-7.907,7.911-7.912c0.001,0,0.001,0,0.002,0c0.828,0,1.499,0.67,1.5,1.499s-0.67,1.5-1.498,1.501
		c-2.707,0.003-4.912,2.208-4.915,4.915C638.408,381.493,637.737,382.163,636.909,382.163z"/>
</g>
<g>
	<path fill="#323845" d="M670.36,483.992h-54.078c-4.631,0-8.397-3.767-8.397-8.397v-18.206c0-4.63,3.767-8.397,8.397-8.397h54.078
		c4.63,0,8.396,3.767,8.396,8.397v18.206C678.757,480.225,674.99,483.992,670.36,483.992z M616.282,451.992
		c-2.977,0-5.397,2.421-5.397,5.397v18.206c0,2.976,2.421,5.397,5.397,5.397h54.078c2.976,0,5.396-2.421,5.396-5.397v-18.206
		c0-2.976-2.421-5.397-5.396-5.397H616.282z"/>
</g>
<polygon fill="#DD5F5F" points="723.032,521.599 283.032,521.599 293.032,500.599 713.032,500.599 "/>
<polygon fill="#DD5F5F" points="723.032,521.599 283.032,521.599 293.032,500.599 713.032,500.599 "/>
<polygon fill="#D35959" points="712.032,500.599 697.407,500.599 707.407,521.599 722.032,521.599 "/>
<polygon fill="#F27979" points="293.032,500.599 283.032,521.599 299.495,521.599 309.495,500.599 "/>
<g>
	<path fill="#323845" d="M723.032,524.599h-440c-1.029,0-1.987-0.528-2.537-1.398s-0.615-1.962-0.172-2.892l10-21
		c0.498-1.044,1.551-1.71,2.708-1.71h420c1.157,0,2.211,0.666,2.709,1.71l10,21c0.442,0.93,0.377,2.021-0.172,2.892
		C725.02,524.07,724.062,524.599,723.032,524.599z M287.784,518.599h430.498l-7.144-15H294.926L287.784,518.599z"/>
</g>
<rect x="283.032" y="521.599" fill="#F76E6E" width="440" height="21"/>
<rect x="708.032" y="521.599" fill="#DD5F5F" width="15" height="21"/>
<rect x="283.032" y="521.599" fill="#F48989" width="17" height="21"/>
<g>
	<path fill="#323845" d="M723.032,545.599h-440c-1.657,0-3-1.343-3-3v-21c0-1.657,1.343-3,3-3h440c1.657,0,3,1.343,3,3v21
		C726.032,544.256,724.689,545.599,723.032,545.599z M286.032,539.599h434v-15h-434V539.599z"/>
</g>
<path fill="#484E5C" d="M683.032,628.573h-360c-16.568,0-31.5-12.913-33.384-29.1l-6.616-56.873h440l-6.615,56.876
	C714.534,615.66,699.6,628.573,683.032,628.573z"/>
<path fill="#454B56" d="M708.032,542.6l-6.615,56.876c-1.883,16.185-16.816,29.1-33.385,29.1h15c16.569,0,31.5-12.913,33.385-29.1
	l6.615-56.876H708.032z"/>
<path fill="#555A66" d="M306.648,599.475l-6.616-56.875h-17l6.616,56.876c1.882,16.185,16.816,29.1,33.384,29.1h17
	C323.464,628.573,308.53,615.66,306.648,599.475z"/>
<g>
	<path fill="#323845" d="M683.032,631.573h-360c-18.013,0-34.326-14.245-36.364-31.754l-6.616-56.873
		c-0.099-0.851,0.17-1.702,0.739-2.342c0.569-0.64,1.385-1.005,2.241-1.005h440c0.856,0,1.671,0.365,2.24,1.005
		s0.839,1.491,0.739,2.342l-6.615,56.876C717.36,617.33,701.047,631.573,683.032,631.573z M286.401,545.6l6.227,53.526
		c1.697,14.583,15.337,26.447,30.404,26.447h360c15.069,0,28.709-11.863,30.405-26.444l6.226-53.529H286.401z"/>
</g>
<path fill="#2D3039" d="M327.827,559h352c2.209,0,4,1.791,4,4v29c0,5.523-4.477,10-10,10h-340c-5.523,0-10-4.477-10-10v-29
	C323.827,560.791,325.618,559,327.827,559z"/>
<g>
	<path fill="#323845" d="M673.827,605h-340c-7.168,0-13-5.832-13-13v-29c0-3.859,3.14-7,7-7h352c3.859,0,7,3.141,7,7v29
		C686.827,599.168,680.995,605,673.827,605z M327.827,562c-0.551,0-1,0.448-1,1v29c0,3.859,3.14,7,7,7h340c3.859,0,7-3.141,7-7v-29
		c0-0.552-0.448-1-1-1H327.827z"/>
</g>
<path fill="#DCDBD7" d="M654.9,701.081H351.166c-9.828,0-16.258-7.895-14.4-17.439L358.6,571.405h288.861L669.3,683.642
	C671.157,693.186,664.726,701.081,654.9,701.081z"/>
<g>
	<path fill="#323845" d="M654.9,704.081H351.166c-5.649,0-10.582-2.209-13.888-6.221c-3.305-4.011-4.533-9.265-3.457-14.792
		l21.834-112.236c0.274-1.409,1.509-2.427,2.945-2.427h288.861c1.436,0,2.671,1.018,2.944,2.427l21.839,112.236
		c1.076,5.527-0.152,10.78-3.458,14.792S660.549,704.081,654.9,704.081z M361.073,574.405l-21.362,109.81
		c-0.728,3.736,0.053,7.227,2.198,9.829c2.146,2.604,5.433,4.037,9.257,4.037H654.9c3.823,0,7.11-1.434,9.256-4.037
		c2.145-2.603,2.926-6.094,2.199-9.829l-21.367-109.81H361.073z"/>
</g>
<path fill="#F9D176" d="M378.019,653.523l12.266-80.892h225.494l12.266,80.892c0.812,5.355-3.137,9.747-8.831,9.747H386.849
	C381.156,663.27,377.207,658.878,378.019,653.523z"/>
<path fill="#F55090" d="M502.484,558.922c-19.883,0-36.688,13.743-37.574,31.428c-0.929,18.547,15.852,34.257,37.525,34.257
	c21.673,0,38.472-15.71,37.576-34.257C539.148,572.665,522.363,558.922,502.484,558.922L502.484,558.922z M525.014,574.885
	c3.772,3.863,6.119,8.893,6.656,14.265c-3.952-0.749-7.964-1.138-11.986-1.162h-0.028c-2.83-0.001-5.657,0.214-8.454,0.644
	c-0.66-1.371-1.321-2.688-1.987-3.941C515.114,582.573,520.499,579.231,525.014,574.885L525.014,574.885z M502.479,565.606
	c6.328-0.037,12.523,1.808,17.8,5.3c-3.955,3.886-8.733,6.833-13.982,8.621c-2.839-4.758-6.136-9.228-9.843-13.346
	c1.987-0.379,4.006-0.571,6.029-0.574L502.479,565.606z M489.915,568.112c3.855,4.054,7.24,8.531,10.091,13.344
	c-7.514,1.842-15.222,2.776-22.959,2.783c-0.154,0-0.3,0-0.453,0l0,0c-0.9,0-1.673-0.01-2.319-0.028
	c2.339-7.158,8.16-12.981,15.644-16.1L489.915,568.112z M473.161,590.35c0-0.117,0.018-0.242,0.031-0.366
	c0.834,0.025,1.9,0.05,3.195,0.05h0.008c8.965,0.03,17.897-1.085,26.579-3.32c0.568,1.077,1.126,2.2,1.686,3.37
	c-9.955,2.901-18.735,8.882-25.079,17.085C475.287,602.641,472.976,596.588,473.161,590.35z M502.441,616.819
	c-6.363,0.038-12.593-1.828-17.886-5.36c2.032-2.839,4.418-5.407,7.1-7.643c4.511-3.806,9.775-6.616,15.448-8.244
	c2.571,6.303,4.603,12.811,6.076,19.457c-3.454,1.19-7.083,1.794-10.736,1.79L502.441,616.819z M519.495,611.985
	c-1.496-6.057-3.437-11.995-5.808-17.766c2.001-0.251,4.015-0.376,6.032-0.374h0.086c3.894,0.027,7.776,0.434,11.591,1.216
	C530.015,602.137,525.688,608.292,519.495,611.985L519.495,611.985z"/>
<path fill="#DCDBD7" d="M654.9,701.081H351.166c-9.828,0-16.258-7.895-14.4-17.439L358.6,571.405h288.861L669.3,683.642
	C671.157,693.186,664.726,701.081,654.9,701.081z"/>
<g>
	<path fill="#323845" d="M654.9,704.081H351.166c-5.649,0-10.582-2.209-13.888-6.221c-3.305-4.011-4.533-9.265-3.457-14.792
		l21.834-112.236c0.274-1.409,1.509-2.427,2.945-2.427h288.861c1.436,0,2.671,1.018,2.944,2.427l21.839,112.236
		c1.076,5.527-0.152,10.78-3.458,14.792S660.549,704.081,654.9,704.081z M361.073,574.405l-21.362,109.81
		c-0.728,3.736,0.053,7.227,2.198,9.829c2.146,2.604,5.433,4.037,9.257,4.037H654.9c3.823,0,7.11-1.434,9.256-4.037
		c2.145-2.603,2.926-6.094,2.199-9.829l-21.367-109.81H361.073z"/>
</g>
<path fill="#FFFFFF" d="M378.019,653.523l12.266-80.892h225.494l12.266,80.892c0.812,5.355-3.137,9.747-8.831,9.747H386.849
	C381.156,663.27,377.207,658.878,378.019,653.523z"/>
<path d="M520.888,555.815h-30.574c-10.384,0-19.783,6.777-21.03,15.645l-4.247,30.2c-1.678,11.931,7.673,22.389,20.978,22.389
	h39.173c13.3,0,22.655-10.46,20.978-22.389l-4.247-30.2C540.672,562.592,531.272,555.815,520.888,555.815z M538.968,601.661
	c0.924,7.989-5.45,14.821-14.257,14.821h-38.22c-8.807,0-15.18-6.832-14.256-14.821l3.493-30.2c0.7-6.084,7.1-10.826,14.282-10.826
	h31.182c7.186,0,13.579,4.742,14.282,10.826L538.968,601.661z"/>
<path d="M505.6,569.447c-10.241,0-19.082,7.056-19.751,16.279c-0.717,9.9,8.121,18.491,19.751,18.491
	c11.63,0,20.468-8.6,19.751-18.491C524.683,576.503,515.839,569.447,505.6,569.447z M505.6,597.571
	c-7.449,0-13.255-5.436-12.95-11.845c0.291-6.118,6.094-10.9,12.95-10.9c6.856,0,12.66,4.781,12.951,10.9
	C518.851,592.135,513.051,597.571,505.6,597.571L505.6,597.571z"/>
<radialGradient id="SVGID_1_" cx="493.128" cy="395.667" r="62.404" gradientTransform="matrix(1 0 0 -1 0 1000)" gradientUnits="userSpaceOnUse">
	<stop offset="0" style="stop-color:#F9C200"/>
	<stop offset="0.452" style="stop-color:#FF4C50"/>
	<stop offset="0.801" style="stop-color:#B53E93"/>
	<stop offset="1" style="stop-color:#423E93"/>
</radialGradient>
<path fill="url(#SVGID_1_)" d="M524.619,565.054c-1.158-0.02-2.286,0.37-3.186,1.1c-0.805,0.657-1.252,1.655-1.206,2.693
	c0.102,1.095,0.664,2.095,1.547,2.75c0.984,0.752,2.188,1.158,3.426,1.155c1.189,0.021,2.346-0.389,3.256-1.155
	c0.794-0.684,1.213-1.706,1.128-2.75c-0.138-1.083-0.721-2.059-1.609-2.693C527.003,565.437,525.827,565.051,524.619,565.054z"/>
<path opacity="0.2" fill="#2D3039" enable-background="new    " d="M327.827,559h352c2.209,0,4,1.791,4,4v26.15l0,0h-360l0,0V563
	C323.827,560.791,325.618,559,327.827,559z"/>
<rect x="323.827" y="559" fill="#6A6D7A" width="360" height="16"/>
<g>
	<path fill="#323845" d="M683.827,578h-360c-1.657,0-3-1.343-3-3v-12c0-3.859,3.14-7,7-7h352c3.859,0,7,3.141,7,7v12
		C686.827,576.657,685.484,578,683.827,578z M326.827,572h354v-9c0-0.552-0.448-1-1-1h-352c-0.551,0-1,0.448-1,1V572z"/>
</g>
<path opacity="0.81" fill="#30B2C4" enable-background="new    " d="M503.831,373.492h24.852c8.601,0,15.574,6.973,15.574,15.574
	v24.852c0,8.601-6.973,15.574-15.574,15.574h-24.852c-8.601,0-15.574-6.973-15.574-15.574v-24.852
	C488.257,380.465,495.23,373.492,503.831,373.492z"/>
<g>
	<path fill="#323845" d="M528.683,430.992h-24.852c-9.415,0-17.074-7.66-17.074-17.074v-24.852c0-9.415,7.66-17.074,17.074-17.074
		h24.852c9.415,0,17.074,7.659,17.074,17.074v24.852C545.757,423.333,538.098,430.992,528.683,430.992z M503.831,374.992
		c-7.761,0-14.074,6.313-14.074,14.074v24.852c0,7.761,6.313,14.074,14.074,14.074h24.852c7.761,0,14.074-6.313,14.074-14.074
		v-24.852c0-7.76-6.313-14.074-14.074-14.074H503.831z"/>
</g>
<g>
	<path fill="#FFFFFF" d="M495.256,392.566c0,0-0.001,0-0.002,0c-0.828-0.001-1.499-0.673-1.498-1.502
		c0.008-6.649,5.425-12.064,12.073-12.071c0.001,0,0.002,0,0.002,0c0.828,0,1.499,0.67,1.5,1.499c0.001,0.829-0.67,1.5-1.498,1.501
		c-4.999,0.005-9.071,4.076-9.077,9.075C496.755,391.896,496.083,392.566,495.256,392.566z"/>
</g>
<g>
	<path fill="#FFFFFF" d="M537.256,415.418c-0.828,0-1.5-0.671-1.5-1.5v-4.125c0-0.829,0.672-1.5,1.5-1.5s1.5,0.671,1.5,1.5v4.125
		C538.756,414.747,538.084,415.418,537.256,415.418z"/>
</g>
<g>
	<path fill="#FFFFFF" d="M537.256,404.667c-0.828,0-1.5-0.671-1.5-1.5v-14.101c0-0.829,0.672-1.5,1.5-1.5s1.5,0.671,1.5,1.5v14.101
		C538.756,403.996,538.084,404.667,537.256,404.667z"/>
</g>
<g>
	<path fill="#323845" d="M460.077,420.712C460.077,420.712,460.077,420.712,460.077,420.712l-118.251-0.08
		c-0.828,0-1.499-0.672-1.499-1.5v-50.718c0-5.238,4.262-9.5,9.5-9.5l110.251,0.08c0.828,0,1.499,0.672,1.499,1.5v58.718
		c0,0.398-0.158,0.78-0.44,1.061C460.856,420.554,460.475,420.712,460.077,420.712z M343.327,417.633l115.25,0.078v-55.718
		l-108.751-0.079c-3.583,0-6.499,2.916-6.499,6.5V417.633z"/>
</g>
<path fill="#484E5C" d="M345.581,429.492h75.492c2.073,0,3.754,1.681,3.754,3.754l0,0c0,2.073-1.681,3.754-3.754,3.754h-75.492
	c-2.073,0-3.754-1.681-3.754-3.754l0,0C341.827,431.173,343.508,429.492,345.581,429.492z"/>
<path fill="#484E5C" d="M438.963,427.61h14.061c3.113,0,5.636,2.523,5.636,5.636v0.001c0,3.113-2.523,5.636-5.636,5.636h-14.061
	c-3.113,0-5.636-2.523-5.636-5.636v-0.001C433.327,430.133,435.85,427.61,438.963,427.61z"/>
<g>
	<path fill="#323845" d="M454.327,420.636c-0.829,0-1.5-0.671-1.5-1.5v-57.914c0-0.829,0.671-1.5,1.5-1.5s1.5,0.671,1.5,1.5v57.914
		C455.827,419.964,455.156,420.636,454.327,420.636z"/>
</g>
<g>
	<path fill="#323845" d="M448.327,420.636c-0.829,0-1.5-0.671-1.5-1.5v-57.914c0-0.829,0.671-1.5,1.5-1.5s1.5,0.671,1.5,1.5v57.914
		C449.827,419.964,449.156,420.636,448.327,420.636z"/>
</g>
<g>
	<path fill="#323845" d="M442.327,420.636c-0.829,0-1.5-0.671-1.5-1.5v-57.914c0-0.829,0.671-1.5,1.5-1.5s1.5,0.671,1.5,1.5v57.914
		C443.827,419.964,443.156,420.636,442.327,420.636z"/>
</g>
<g>
	<path fill="#323845" d="M436.327,420.636c-0.829,0-1.5-0.671-1.5-1.5v-57.914c0-0.829,0.671-1.5,1.5-1.5s1.5,0.671,1.5,1.5v57.914
		C437.827,419.964,437.156,420.636,436.327,420.636z"/>
</g>
<g>
	<path fill="#323845" d="M430.327,420.636c-0.829,0-1.5-0.671-1.5-1.5v-57.914c0-0.829,0.671-1.5,1.5-1.5s1.5,0.671,1.5,1.5v57.914
		C431.827,419.964,431.156,420.636,430.327,420.636z"/>
</g>
<g>
	<path fill="#323845" d="M424.327,420.636c-0.829,0-1.5-0.671-1.5-1.5v-57.914c0-0.829,0.671-1.5,1.5-1.5s1.5,0.671,1.5,1.5v57.914
		C425.827,419.964,425.156,420.636,424.327,420.636z"/>
</g>
<g>
	<path fill="#323845" d="M418.327,420.636c-0.829,0-1.5-0.671-1.5-1.5v-57.914c0-0.829,0.671-1.5,1.5-1.5s1.5,0.671,1.5,1.5v57.914
		C419.827,419.964,419.156,420.636,418.327,420.636z"/>
</g>
<g>
	<path fill="#323845" d="M412.327,420.636c-0.829,0-1.5-0.671-1.5-1.5v-57.914c0-0.829,0.671-1.5,1.5-1.5s1.5,0.671,1.5,1.5v57.914
		C413.827,419.964,413.156,420.636,412.327,420.636z"/>
</g>
<g>
	<path fill="#323845" d="M406.327,420.636c-0.829,0-1.5-0.671-1.5-1.5v-57.914c0-0.829,0.671-1.5,1.5-1.5s1.5,0.671,1.5,1.5v57.914
		C407.827,419.964,407.156,420.636,406.327,420.636z"/>
</g>
<g>
	<path fill="#323845" d="M400.327,420.636c-0.829,0-1.5-0.671-1.5-1.5v-57.914c0-0.829,0.671-1.5,1.5-1.5s1.5,0.671,1.5,1.5v57.914
		C401.827,419.964,401.156,420.636,400.327,420.636z"/>
</g>
<g>
	<path fill="#323845" d="M394.327,420.636c-0.829,0-1.5-0.671-1.5-1.5v-57.914c0-0.829,0.671-1.5,1.5-1.5s1.5,0.671,1.5,1.5v57.914
		C395.827,419.964,395.156,420.636,394.327,420.636z"/>
</g>
<g>
	<path fill="#323845" d="M388.327,420.636c-0.829,0-1.5-0.671-1.5-1.5v-57.914c0-0.829,0.671-1.5,1.5-1.5s1.5,0.671,1.5,1.5v57.914
		C389.827,419.964,389.156,420.636,388.327,420.636z"/>
</g>
<g>
	<path fill="#323845" d="M382.327,420.636c-0.829,0-1.5-0.671-1.5-1.5v-57.914c0-0.829,0.671-1.5,1.5-1.5s1.5,0.671,1.5,1.5v57.914
		C383.827,419.964,383.156,420.636,382.327,420.636z"/>
</g>
<g>
	<path fill="#323845" d="M376.327,420.636c-0.829,0-1.5-0.671-1.5-1.5v-57.914c0-0.829,0.671-1.5,1.5-1.5s1.5,0.671,1.5,1.5v57.914
		C377.827,419.964,377.156,420.636,376.327,420.636z"/>
</g>
<g>
	<path fill="#323845" d="M370.327,420.636c-0.829,0-1.5-0.671-1.5-1.5v-57.914c0-0.829,0.671-1.5,1.5-1.5s1.5,0.671,1.5,1.5v57.914
		C371.827,419.964,371.156,420.636,370.327,420.636z"/>
</g>
<g>
	<path fill="#323845" d="M364.327,420.636c-0.829,0-1.5-0.671-1.5-1.5v-57.914c0-0.829,0.671-1.5,1.5-1.5s1.5,0.671,1.5,1.5v57.914
		C365.827,419.964,365.156,420.636,364.327,420.636z"/>
</g>
<g>
	<path fill="#323845" d="M358.327,420.636c-0.829,0-1.5-0.671-1.5-1.5v-57.914c0-0.829,0.671-1.5,1.5-1.5s1.5,0.671,1.5,1.5v57.914
		C359.827,419.964,359.156,420.636,358.327,420.636z"/>
</g>
<g>
	<path fill="#323845" d="M352.327,420.636c-0.829,0-1.5-0.671-1.5-1.5v-57.914c0-0.829,0.671-1.5,1.5-1.5s1.5,0.671,1.5,1.5v57.914
		C353.827,419.964,353.156,420.636,352.327,420.636z"/>
</g>
<g>
	<path fill="#323845" d="M346.327,420.636c-0.829,0-1.5-0.671-1.5-1.5v-57.914c0-0.829,0.671-1.5,1.5-1.5s1.5,0.671,1.5,1.5v57.914
		C347.827,419.964,347.156,420.636,346.327,420.636z"/>
</g>
<g>
	<path fill="#323845" d="M551.551,483.438h-31.192c-0.828,0-1.5-0.671-1.5-1.5v-16c0-0.829,0.672-1.5,1.5-1.5h31.192
		c5.238,0,9.5,4.262,9.5,9.5S556.789,483.438,551.551,483.438z M521.858,480.438h29.692c3.584,0,6.5-2.916,6.5-6.5
		s-2.916-6.5-6.5-6.5h-29.692V480.438z"/>
</g>
<g>
	<path fill="#323845" d="M514.854,483.438H483.66c-5.238,0-9.5-4.262-9.5-9.5s4.262-9.5,9.5-9.5h31.193c0.828,0,1.5,0.671,1.5,1.5
		v16C516.354,482.767,515.682,483.438,514.854,483.438z M483.66,467.438c-3.584,0-6.5,2.916-6.5,6.5s2.916,6.5,6.5,6.5h29.693v-13
		H483.66z"/>
</g>
<g>
	<path fill="#323845" d="M551.551,483.438h-31.192c-0.828,0-1.5-0.671-1.5-1.5v-16c0-0.829,0.672-1.5,1.5-1.5h31.192
		c5.238,0,9.5,4.262,9.5,9.5S556.789,483.438,551.551,483.438z M521.858,480.438h29.692c3.584,0,6.5-2.916,6.5-6.5
		s-2.916-6.5-6.5-6.5h-29.692V480.438z"/>
</g>
<g>
	<path fill="#323845" d="M514.854,483.438H483.66c-5.238,0-9.5-4.262-9.5-9.5s4.262-9.5,9.5-9.5h31.193c0.828,0,1.5,0.671,1.5,1.5
		v16C516.354,482.767,515.682,483.438,514.854,483.438z M483.66,467.438c-3.584,0-6.5,2.916-6.5,6.5s2.916,6.5,6.5,6.5h29.693v-13
		H483.66z"/>
</g>
<g>
	<path fill="#323845" d="M549.335,444.07h-66.156c-5.238,0-9.5-4.262-9.5-9.5v-66.156c0-5.238,4.262-9.5,9.5-9.5h66.156
		c5.238,0,9.5,4.262,9.5,9.5v66.156C558.835,439.808,554.573,444.07,549.335,444.07z M483.179,361.914c-3.584,0-6.5,2.916-6.5,6.5
		v66.156c0,3.584,2.916,6.5,6.5,6.5h66.156c3.584,0,6.5-2.916,6.5-6.5v-66.156c0-3.584-2.916-6.5-6.5-6.5H483.179z"/>
</g>
<path opacity="0.22" fill="#FFFFFF" enable-background="new    " d="M673.258,346.727h-44.1l48.1,48.094v-44.094
	C677.258,348.518,675.467,346.727,673.258,346.727z"/>
<path opacity="0.22" fill="#FFFFFF" enable-background="new    " d="M613.7,346.727h-0.315c-2.209,0-4,1.791-4,4v2.509
	l61.363,61.364h2.51c2.209,0,4-1.791,4-4v-0.315L613.7,346.727z"/>
<g>
	<path fill="#323845" d="M673.257,416.099h-59.872c-3.032,0-5.5-2.467-5.5-5.5v-59.872c0-3.033,2.468-5.5,5.5-5.5h59.872
		c3.032,0,5.5,2.467,5.5,5.5v59.872C678.757,413.632,676.289,416.099,673.257,416.099z M613.385,348.227c-1.379,0-2.5,1.122-2.5,2.5
		v59.872c0,1.378,1.121,2.5,2.5,2.5h59.872c1.379,0,2.5-1.122,2.5-2.5v-59.872c0-1.378-1.121-2.5-2.5-2.5H613.385z"/>
</g>
</svg>