<svg width="264" height="200" viewBox="0 0 264 200" fill="none" xmlns="http://www.w3.org/2000/svg"><g clip-path="url(#clip0)"><path d="M172.2 124.4l1.9-3v-.2c.1-.5.4-.8.7-1.1.8-1.6 1.6-3.2 2.2-4.9.5-1.3 2.4-.9 2.3.3.3.5.7 1 .7 1.7 0 1.1-.6 2.1-.8 3.1v1.9l.1.3.7-.2c.6-.3 1.1-.7 1.5-1.3l.6-1.3c.6-1.2 2.6-.4 2.2.9l-.7 1.4-.2.4c1.8-.6 3.6-1.4 5.3-2.3a6.3 6.3 0 003.4-6.1l-.1-.6a1 1 0 01-.2-.9c-.5-2-1.7-3.8-3-5.3a24.3 24.3 0 00-5.8-5.3c-1.3-.8-.2-2.7 1.2-2.1 2.7 1.3 5.1 3.2 6.9 5.6.9 1.2 1.9 2.5 2.5 4 .5 0 1.1.3 1.3.9l.6 1.9.1.3.5.1a11.5 11.5 0 004.8-5.7v-.2l.5-1.3.3-.4c.3 0 .3-.1.4-.2.5-.7 1.5-.8 2.1 0l.6 1.1h.2l.5-.1c2-.2 3.7.6 5.6 1.2a28.9 28.9 0 0019.2-.4c.5-.2.9-.1 1.4 0 1.8-.6 4.1 1.4 2.9 3.5l-8.6 15.3-4.3 7.6c-1.2 2.2-2.3 4.6-4.7 5.6-2.4 1-5.4 1.1-8 1.3-2.9.2-5.8.2-8.6-.1-5.6-.5-10.1-3.7-14.8-6.5-2.7-1.6-5.6-3-8.2-4.9l-1.4-1.2c-.9-.6-1.8-1.2-2.8-1.2-.8.1-1.6-.9-1-1.6z" fill="#FFD000"/><path d="M179.7 12.2c3.6-4.8 10.2-7 15.8-4.7 3.6 1.4 6.7 4 9.8 6.2 3.1 2.2 6.1 4.5 9.9 5.5 3.6 1 7.1 1.9 10.6 3.2 3.4 1.3 6.7 2.9 9.9 4.8 5.8 3.4 12.4 7.7 13.2 15 .7 6.9-3.3 13.8-6.8 19.4-3.2 5-7.8 10.8-13.9 12.3-1 .2-2 0-2.5-.9-.5-.8-.3-1.8-.1-2.6l.2-.9V69c-.1.1.4.3.6.6-.2-.2.2.1.2 0l-.7.2-1.4.3-3.1.6c-7.9 1.4-16.1 2.1-24.2 1.9a56 56 0 01-16.2-3.1 58 58 0 01-8.2-3.2 22.9 22.9 0 01-6.4-4.2 5.4 5.4 0 01-1.8-4.1c.1-1.9 3.1-1.9 3 0-.1 2.2 3.4 3.9 5.1 4.8a65.8 65.8 0 0022.2 6.5 115.2 115.2 0 0020.5-.8c3.7-.5 7.2-1.3 10.8-1.9 2.2-.3 2.9 1.5 2.7 3.3l-.2 1.7v-.1c.2.5-.2.3-.9-.6h-.1l.5-.2a22.2 22.2 0 008.4-6.3c2-2.3 3.6-4.9 5-7.6 1.6-2.9 3.1-5.8 4-9 .8-3.1 1-6.4-.6-9.3-1.5-2.7-4-4.6-6.5-6.4-5.7-3.9-12.1-7-18.8-9-3.4-1-7.1-1.6-10.2-3.4-3.6-2.1-6.8-4.7-10.3-7.1-2.8-1.9-5.5-3.6-9-3.3-3 .2-5.9 1.7-7.7 4.1-1.4 1.8-4 .3-2.8-1.2z" fill="#1B1B20"/><path d="M187.5 9.7a35.3 35.3 0 00-20.3 1.9 29.3 29.3 0 00-15.7 13.7c-2 3.8-3.4 7.8-4.6 11.9-.6 2.1-1.3 4.1-1.7 6.2-.5 2.3-.7 4.6-.9 7-.4 4.5-1.3 8.8-2.2 13.2a10 10 0 00-.3 2.5c0 .8-.2 1.5-.7 2.1-1.1 1.3-2.7 1.4-4.3 1.5A81.6 81.6 0 0093.4 91c-5.6 5.3-10.1 11.6-15.2 17.4a37.4 37.4 0 01-18.1 12.5c-8 2.1-16.6.5-23.8-3.1A60 60 0 0117.7 102L14 97.2l2.8-.8a45 45 0 0020.8 39.4 76.6 76.6 0 0041 8.9c7.6-.1 15.2-1 22.7-2.5 1.9-.4 2.7 2.5.8 2.9-14.3 3-29.4 3.7-43.8 1.2a64.2 64.2 0 01-20.6-6.9 48.2 48.2 0 01-23.8-42.9c.1-1.6 1.9-1.9 2.8-.8 9.3 12.6 23.4 25.8 40.5 22.9a33 33 0 0018.4-11.5c5.1-5.6 9.5-11.9 14.9-17.2a84.6 84.6 0 0143.2-22.6c1.5-.3 3.2-.1 4.6-.5.6-.2.6-.3.6-.8 0-1 .2-1.9.4-2.9l1.4-6.4c.4-2.2.6-4.4.8-6.7.4-4.4 1.3-8.6 2.6-12.9a71 71 0 014.5-11.9 32.6 32.6 0 0114.8-14.8c6.2-3 13.3-4.5 20.2-4 1.7.1 3.3.4 4.9.7 1.7.1.9 3-1 2.6z" fill="#1B1B20"/><path d="M123.5 109.9c5.7 9.1 10.8 20.2 8.1 31.1a25 25 0 01-3.5 7.8c-1.2 1.6-3.4 1.9-5.1 2.7a36 36 0 00-13.7 11.7 30.4 30.4 0 00-4.5 18.6 23 23 0 00-1.9-1.4c2.8-1.1 7.1-2.5 9.6 0s1.9 7 1.1 10c-.2.8-1.1 1.2-1.8 1-3.9-.8-7.8-1.6-11.8-1.7-3.8-.1-7.6 1.1-11.4.1-.8-.2-1.3-1.1-1-1.8.9-2.8 1.8-5.5 3-8.2.3-.8 1-1.3 1.8-1 .7.2 1.4 1.1 1 1.8-1.1 2.7-2.1 5.4-3 8.2l-1-1.8c1.8.5 3.7.3 5.6.1 2-.2 3.9-.4 5.9-.3 3.9.2 7.8 1 11.6 1.8l-1.8 1c.4-1.4.6-2.8.5-4.2 0-.9-.1-2.2-.9-2.9-1.5-1.4-5.1.2-6.7.8-1 .4-1.9-.6-1.9-1.4-.3-5.6.5-11.3 2.9-16.5 2.4-5.3 6.7-9.6 11.3-13 2.1-1.6 4.4-3.1 6.9-4 .8-.3 2-.5 2.6-1.1.8-.7 1.4-2.2 1.8-3.1a23.5 23.5 0 001.1-15.7c-1.4-6-4.3-11.6-7.6-16.8-.8-1.9 1.8-3.4 2.8-1.8z" fill="#1B1B20"/><path d="M90.7 122c1.7 2.5 4 4.5 6.2 6.5 2 1.8 3.9 3.5 5.2 5.9a16.8 16.8 0 01-4.1 20.4c-.9.7-1.8 1.4-2.9 1.9l-1.7.8c-.3.1-.7.4-1 .4l-.3.1c.1-.4.2-.3.2.1.4.7.4 1.6.6 2.4l.7 3.2c.5 2.2.8 4.4 1.1 6.6.5 4.5.6 9.9-2.4 13.7-1.2 1.5-3.3-.6-2.1-2.1 2.2-2.8 1.9-7.5 1.6-10.9-.4-4-1.3-7.9-2.3-11.7-.3-1-.5-2.2.2-3.1.8-1 2.2-1.1 3.3-1.6 2.1-1 4-2.5 5.4-4.4 2.8-3.8 3.3-9 1.5-13.3-1.1-2.6-3.2-4.4-5.2-6.2a42.9 42.9 0 01-6.5-7c-1.2-1.7 1.4-3.2 2.5-1.7zM168 96c1.6 3.1 5.4 4.1 8.6 4.5l3.3.4c1 .1 2-.2 3.1 0a8 8 0 014.7 2.9 19 19 0 015.1 11c.2 4.3-4 7.5-7.3 9.5-1.2.7-2.5-.4-2.2-1.7.7-2.7.8-5.5.4-8.2l2.7.4a35.7 35.7 0 01-5.4 7.5c-1 1-3 0-2.5-1.5 1.2-3.3 1.2-7.4-1.9-9.6-1.6-1.2-3.6-1.8-5.5-2.4-2.2-.7-4.5-1.1-6.7-1.2-1.9-.1-1.9-3.1 0-3 2.7.2 5.4.6 8 1.5 2.4.7 4.8 1.7 6.7 3.3 3.5 3 3.8 8.2 2.3 12.3l-2.5-1.5c2-2 3.7-4.3 5-6.8.6-1.1 2.5-.9 2.7.4.5 3.3.4 6.6-.4 9.8l-2.2-1.7c1.7-1 3.2-2.2 4.6-3.7 1.5-1.7 1.5-3.4.8-5.4-.6-1.8-1.5-3.5-2.5-5.1a9.5 9.5 0 00-3.5-3.4c-.9-.3-1.7-.1-2.6-.1l-3-.3c-1.6-.2-3.3-.4-4.9-.9-3-.8-5.9-2.4-7.3-5.3-1.1-1.9 1.5-3.4 2.4-1.7z" fill="#1B1B20"/><path d="M182.6 96.4a19 19 0 018.4 4.2c2.1 2.1 3.4 5.1 2.6 8.1l-2.5-1.5 2.9-3.3c.8-1 2.6-.2 2.6 1.1-.1 2.2.2 4.4 1.2 6.3h-2.6c1.4-2 2.7-4.2 3.5-6.5.8-2.2 1-4.4-.8-6.1a16 16 0 00-6.2-3.2c-2.5-.7-5.2-.4-7.8-.3-1.9.1-1.9-2.9 0-3 3-.2 6.1-.4 9.1.5a18 18 0 017.5 4.2c4.3 4.6.3 11.7-2.6 15.9-.6.9-2 1.1-2.6 0a16.3 16.3 0 01-1.7-7.9l2.6 1.1-2.9 3.3c-1 1.2-2.9-.1-2.5-1.5.5-2.1-.7-4.2-2.3-5.5-1.9-1.6-4.4-2.3-6.7-3-1.8-.5-1.1-3.4.8-2.9z" fill="#1B1B20"/><path d="M187.5 69.1c.7 2.4.9 4.8 1 7.3l.2 7.8c.1 3.8.1 8.3-3.1 11-1.5 1.3-3.6-.9-2.1-2.1 2.8-2.4 2.3-6.6 2.2-9.8-.1-4.4.2-9.1-1.1-13.3-.6-2 2.3-2.8 2.9-.9zM237.3 63.6c-3.9-2-8.4-2.2-12.7-2.6-4.7-.5-9.1-1.6-13.6-2.9-4-1.2-8.2-2.3-11.6-4.9a13.5 13.5 0 01-5.8-9.8c-.2-1.9 2.8-1.9 3 0 .7 8.5 11.4 10.8 17.9 12.6 4.1 1.1 8.2 1.8 12.5 2.2 4.1.4 8.1.9 11.8 2.8 1.8.8.2 3.4-1.5 2.6z" fill="#1B1B20"/><path d="M235.1 62.7c-.9 1.1-1.9 2.1-3 3l-1.9 1.4c-.7.5-1.5.9-2.4.8-1.8-.2-2.3-2.4-2.7-3.9-.4-1.5-.6-3.1-.6-4.6 0-.8.7-1.5 1.5-1.5s1.5.7 1.5 1.5l.1 1.9v.2l.1.4.2.9.6 1.8.2.4c-.1-.3 0 0 0 .1.1.2-.1-.1-.2-.1l-.3-.1h-.1-.1l.2-.1.4-.3.7-.5.3-.3.1-.1.7-.6c.9-.8 1.7-1.6 2.5-2.6.5-.6 1.6-.6 2.1 0 .7.8.6 1.6.1 2.3z" fill="#1B1B20"/><path d="M226.7 62a12.2 12.2 0 01-4.1 2.9 9.3 9.3 0 01-5.4.9c-1.6-.4-2.6-1.8-2.9-3.3l-.3-1.9-.2-.9-.1-.4-.1-.2c-.4-.7-.2-1.6.5-2.1.7-.4 1.6-.2 2.1.5.6 1.1.8 2.2 1 3.4l.2.9.1.4c0 .1.2.4 0 .1l.2.3c.1.3-.2-.1.1.1l.1.1.2.1c.5.2 1.2.1 1.7-.1l1.8-.5a9.7 9.7 0 003.3-2.4c.5-.6 1.6-.6 2.1 0 .3.5.2 1.5-.3 2.1z" fill="#1B1B20"/><path d="M215.3 60.2a12 12 0 01-3.4 2.5 7.8 7.8 0 01-4.5 1.2c-1.7-.2-2.7-1.6-2.9-3.2-.1-.8 0-1.5.1-2.2l.1-.6c.1-.3 0 .1 0-.2v-.6-.3c0 .2 0 .1 0 0-.1-.8.2-1.7 1-1.8.7-.2 1.7.2 1.8 1 .2.8.1 1.6 0 2.4l-.1.9c-.1.3 0-.1 0 .2V60.3l.1.4c.1.3-.1-.2 0 .1.1.1.1.4 0 .1l.2.2-.1-.1.3.1h-.1H208.1l.3-.1.8-.2.4-.1c.1 0 .4-.2.1-.1l.8-.4 1.5-.9.1-.1.3-.3.7-.7c.5-.6 1.6-.6 2.1 0 .7.5.7 1.4.1 2z" fill="#1B1B20"/><path d="M206.2 59h-.1c-.2 0 .1-.1.1 0l-.3.1-.6.3-1.1.8c-.7.5-1.5 1-2.4 1.2-1.2.3-2.4 0-3.4-.9a5 5 0 01-1.5-3c-.2-1.4.3-2.7.7-4 .3-.7 1-1.3 1.8-1 .7.2 1.3 1.1 1 1.8l-.6 1.9c0 .1-.1.5 0 .2v1l.1.3c.1.2 0 .1 0-.1l.1.2.2.3-.1-.1.1.2.2.2-.1-.1.2.1c.3.2-.3-.1 0 0h.4l.3-.1c.4-.1-.2.1 0 0l1.2-.7c.9-.6 1.7-1.2 2.8-1.6.7-.3 1.7.3 1.8 1 .4.9 0 1.7-.8 2zM238.7 37.2a4 4 0 012.6-.4c.7.1 1.3.5 1.8 1 1 1 1.4 2.5 1.4 3.9-.1 1.5-.7 3-2.1 3.8-2 1.1-4.6.2-5.8-1.7-1.3-2.3-.1-5.5 2.1-6.6.7-.4 1.7-.2 2.1.5.4.7.2 1.7-.5 2.1l-.5.2.1-.1-.1.1-.2.2-.2.2.1-.1-.1.1-.3.5c-.1.2.1-.3.1-.1v.1l-.1.2-.1.3v-.2.7s-.1-.3 0-.2v.2l.1.3c.1.2-.2-.3 0 0l.1.2.1.1-.1-.2.2.2.2.2.1.1-.2-.1c.1.1.3.3.5.3l-.2-.1h.1l.3.1.3.1h-.2.4c.2 0-.3.1-.1 0l.3-.1h.1c.3-.1-.2.1-.1.1l.3-.2c.1 0 .2-.2 0 0s-.1 0 0 0l.2-.2-.1.2.1-.2.1-.3-.1.2.1-.2.1-.3V42c.1-.3 0 .4 0 .1v-.7V41.1v.3l-.1-.4-.1-.3v-.1-.1l.1.2-.3-.6-.1-.1c-.1-.3.2.1.1 0l-.1-.1-.2-.2.2.2h-.1l-.2-.1.2.1-.1-.1h-.2c-.2-.1.4 0 .2 0H240.6c.3 0 .1 0 0 0l-.2.1-.2.1c-.3.1.4-.2.1 0-.7.3-1.7.2-2.1-.5-.3-1-.2-2 .5-2.3zM146.7 139.4c1.9 5.2 4 11 3.4 16.6a9.9 9.9 0 01-3.4 7.2c-1.2 1-2.5 1.7-3.6 2.8-1 1-1.8 2.2-2.4 3.5-1 2.2-1.7 4.7-2.5 7l-2.7 7.7c-.6 1.8-3.5 1-2.9-.8l4.6-13c1.1-2.9 2.4-5.4 4.8-7.4 1.1-.9 2.5-1.6 3.4-2.7.8-.9 1.2-2 1.4-3.1.6-2.7.1-5.6-.5-8.3-.7-3-1.6-5.8-2.7-8.7-.5-1.9 2.4-2.6 3.1-.8z" fill="#1B1B20"/><path d="M137.4 181.3c3.6-.9 7.6-.6 10.4 2a7.4 7.4 0 012.4 4.3c.2.9.2 1.9 0 2.8a3 3 0 01-2.1 2.1c-2.1.7-4.6.5-6.7-.1-.8-.2-1.3-1.1-1-1.8.2-.8 1.1-1.3 1.8-1a9 9 0 002.8.4l1.2-.1.8-.1s.5-.1.2-.1c.2-.1.1-.1 0 .1l.1-.3v-.1-.5-.4c-.1-.8-.3-1.3-.8-2-1.7-2.7-5.4-3.2-8.4-2.4-.8.2-1.6-.3-1.8-1-.1-.7.4-1.6 1.1-1.8z" fill="#1B1B20"/><path d="M140.8 190.2c-.1.4 0 0 0 0v-.4-.3-.2.1c.1-.1-.1-.6-.2-.7l-.1-.3c-.1-.3.1.3 0 0l-.3-.6-.1-.2-.2-.2-.4-.4c-.2-.2.2.1 0 0l-.3-.2-.6-.3.2.1-.2-.1-.3-.1-.3-.1c-.1 0-.4-.1-.2 0 .1 0 .1 0 0 0h-.5c-.6 0-1.3 0-1.8-.4-.7-.5-1.2-1.4-.9-2.3.3-.7 1-1.3 1.8-1 .7.2 1.3 1.1 1 1.8-.1.3-.2.1-.1-.8l-.2-.2-.3-.1h-.1.6l1.6.2c1 .3 2 .8 2.8 1.5a6 6 0 011.7 2.7c.4 1.1.4 2.2.2 3.3a2 2 0 01-.7.9c-.3.2-.8.3-1.2.2-.7-.3-1-1.1-.9-1.9z" fill="#1B1B20"/><path d="M142.6 191.9c-1.8 1-3.7.8-5.7.5l-6.2-.9c-.8-.1-1.2-1.1-1-1.8.2-.9 1-1.2 1.8-1l5.5.8 2.2.2c.7 0 1.2-.1 1.8-.4.7-.4 1.6-.2 2.1.5.5.8.2 1.7-.5 2.1z" fill="#1B1B20"/><path d="M136.3 186.7h-.2l.4-.1-.7.2-.3.1c.5-.2.1 0 0 0l-.6.4c.4-.3.1 0 0 0l-.3.3-.2.3.1-.1-.1.2-.4.6-.1.2c-.1.2.1-.3 0-.1l-.1.3-.2.8.1-.4v1.1c0 .4-.2.8-.4 1.1-.3.3-.7.5-1.1.4-.4 0-.8-.1-1.1-.4-.3-.3-.4-.6-.4-1.1-.2-1.7.5-3.3 1.5-4.6a6.2 6.2 0 014.3-2.2c.8-.1 1.5.7 1.5 1.5-.2.9-.9 1.5-1.7 1.5z" fill="#1B1B20"/><path d="M131.2 191.9c-2.1-.2-5.4 0-7.1-1.6-1.4-1.3-.8-3.3-.5-5a41.4 41.4 0 00-.5-18.2l-.9-3.3c-.3-1.1-.8-2.2-1-3.3-.4-2.4 2.2-3.5 3.2-5.4a8.9 8.9 0 00.9-6.4c-.5-1.9 2.4-2.7 2.9-.8.9 3.6.1 7.4-2.2 10.2l-1 1.1-.8.7c-.1.3.4 1.2.5 1.5l.5 1.7a45.7 45.7 0 011.3 23l-.3 2v-.1l.2.1.4.1c1.4.4 3 .4 4.4.6 1.9.2 1.9 3.2 0 3.1zM105.9 187.5v-.2c0-.3.1.3 0 .1l-.1-.4-.2-.8-.1-.2s.2.4 0 .1l-.2-.4-.4-.7.1.1-.1-.2-.3-.3-.6-.6.1.1-.2-.1-.3-.2-.3-.2-.2-.1c-.2-.1.3.1.1 0-.4-.1-.7-.3-.9-.7-.2-.3-.3-.8-.2-1.2.2-.7 1.1-1.4 1.8-1 .8.3 1.5.7 2.2 1.2l1.5 1.6a7.5 7.5 0 011.4 4.1c.1.8-.7 1.5-1.5 1.5-1 0-1.6-.7-1.6-1.5z" fill="#1B1B20"/><path d="M103.7 183.4h-.2l.4-.1-.8.2-.4.1c.5-.2 0 0-.1.1l-.7.4.1-.1-.2.1-.3.3-.3.3-.1.2.1-.1-.4.7-.1.2c0 .1-.1.3 0 0s0 0 0 .1l-.1.2-.2.8.1-.4v.6c0 .8-.7 1.5-1.5 1.5s-1.5-.7-1.5-1.5c0-1.7.7-3.3 1.9-4.5 1.2-1.2 2.7-2 4.4-2.1.4 0 .8.2 1.1.4.3.3.5.7.4 1.1-.1.9-.8 1.4-1.6 1.5zM179.9 111.8a47.5 47.5 0 01-35.4 29.5c-5.3 1.1-10.7 1.5-16.1 2-1.9.2-1.9-2.8 0-3 8.7-.7 17.6-1.4 25.6-5a44.2 44.2 0 0023-24.2c.7-1.9 3.6-1.1 2.9.7zM130.8 68.7c1.1.7 2 1.6 2.9 2.5l.4-2.1c.3-1.3 1.7-1.5 2.6-1l.1-.5c.1-1 .7-1.8 1.8-1.8.9 0 1.9.8 1.8 1.8-.7 5.4-1.1 10.9-1.1 16.4 0 1.7-2.5 2.5-3.3.9l-7.5-13.6c-.9-1.6.8-3.7 2.3-2.6zM107.3 77.2c.9-.5 1.9-.1 2.4.6l.6.7v-.6c.1-.4.2-.8.5-1 .6-.6 1.4-.7 2.2-.3l.8.5c-.1-.9.3-1.8 1.2-2.1.7-.2 1.8.2 2.1.9.5.5.6 1.4.3 2.1l.3 2.2c.5.3.7.9.8 1.5l.9 9.3c.1.8-.6 1.5-1.3 1.7-.8.2-1.5-.2-2-.8l-.6-.8-.1-.1a.5.5 0 01-.3-.5l-8.4-10.9c-.6-.8-.1-2 .6-2.4zM91.2 91c.5-.7 1.5-.9 2.3-.5l1.7 1-1.3-1.8c-.6-.7-.7-1.6-.1-2.3a2 2 0 011.8-.7l.5-.5c.9-.5 1.9-.2 2.4.6l7.2 11.6c.4.7.3 1.6-.3 2.2-.6.6-1.4.6-2.2.3-4.3-2-8.3-4.6-12-7.6-.5-.5-.5-1.7 0-2.3zM77.7 106.8c.5-.2.9-.3 1.4-.3l.3-.4c-.4-.6-.4-1.4-.1-1.9.5-.9 1.6-1 2.4-.6 4.4 1.9 8.8 4 13.1 6.1 1.4.7 1 2.9-.4 3.3-5.8 1.7-12.2.7-17.2-2.8-1.2-1-1-2.9.5-3.4zM69.4 114.7c.4-.1.7 0 1.1.1.6-.4 1.4-.5 2-.1.8 0 1.6.5 1.8 1.3.9 3.6 1.3 7.4 1.1 11.1 0 .8-.5 1.5-1.3 1.7-.8.2-1.5-.2-2-.8-1.6-2-2.8-4.3-3.7-6.6-.4-1.1-.9-2.2-1-3.4-.1-1.5.6-3 2-3.3zM55.5 119.4l.8.2a2 2 0 011.4-.7c1 0 1.7.8 1.8 1.8.3 3.1-.4 6.2-1.7 9-.3.6-1.1.9-1.8.9-.7-.1-1.3-.6-1.5-1.3-.6-2.7-.9-5.4-.9-8.1.1-.9 1-1.8 1.9-1.8zM38.2 117.6c1 0 1.7.8 1.8 1.8l.1.7c.1-.5.4-.9.9-1.2a2 2 0 012.5.3c.9.9.6 2.2.2 3.3-.5 1.6-1.4 3.1-2.4 4.4-.7.9-2.3.6-2.8-.4a16 16 0 01-1.9-7.1c-.2-.9.7-1.8 1.6-1.8zM24.3 115.1l1.5-3.2c.2-.4.7-.7 1.1-.8.4-.1 1-.1 1.4.2.4.2.7.6.8 1.1v.1l.2-.1c.4-.3 1-.3 1.4-.2.4.1.9.4 1.1.8.2.4.3.9.2 1.4l-.2.4-.6.6a19 19 0 01-4.7 2.4h-1c-.4-.1-.7-.3-.9-.6a3 3 0 01-.4-.8c-.2-.6-.1-.9.1-1.3zM142.5 40.9c.4-.8 1.6-1.3 2.4-.8 4.9 3 9.1 7.3 11.7 12.5.6 1.2.1 2.7-1.3 2.8-4 .3-8-.6-11.5-2.6a1.8 1.8 0 01-.9-2.2l.2-.4-.4-.6c-.9-1.5-.4-3.5 1.4-3.9l.6-.1c0-.4.2-.7.4-1l-1.9-1.3c-.7-.5-1.1-1.4-.7-2.4zM150.7 25.4l1.5-2.1c-.7-1.1.1-3 1.7-2.8-.3-.7.1-1.7.7-2.1.9-.6 1.9-.3 2.5.5 3.3 4 6.1 8.4 8.3 13 .6 1.2-.8 2.7-2 2.3-3.7-1.1-7.4-2.4-11-3.9-.9-.4-1.8-.7-2.3-1.6-.7-1.2-.1-2.3.6-3.3zM168.7 10.5h1v-.4c.1-.9 1.2-1.6 2.1-1.4l.1.1c.3-.4.8-.7 1.3-.7 1.1 0 1.7.7 1.9 1.6.7 3.2.8 6.5.4 9.8-.1.6-.6 1.2-1.2 1.3-.7.2-1.2 0-1.8-.3a13 13 0 01-5.2-8.2c0-.8.7-1.6 1.4-1.8z" fill="#1B1B20"/><path d="M217.8 111.3c-4 8.2-8.2 16.2-12.6 24.1l-3.4 5.8c-1 1.7-2.3 2.9-4.4 2.3-4-1.2-7.7-4-11.1-6.3l-13.4-8.9c-1.6-1.1-.1-3.7 1.5-2.6l10.7 7.1c3.3 2.2 6.6 4.6 10.2 6.5.9.4 1.7.9 2.7 1.2.5.2.5.1.9-.3l.8-1.4 3.1-5.4a610.2 610.2 0 0012.4-23.7c.9-1.6 3.5-.1 2.6 1.6z" fill="#1B1B20"/><path d="M213.6 110.1l.6-.7.3 2.4c-4.7-3.2-9.6-6-14.7-8.6-1.7-.9-.2-3.5 1.5-2.6 5.1 2.6 10 5.5 14.7 8.6.8.5 1 1.6.3 2.4l-.6.7c-1.3 1.3-3.4-.8-2.1-2.2zM210.6 113.5c-5.1 7.3-9.8 14.8-14 22.6-.9 1.7-3.5.2-2.6-1.5 4.2-7.8 8.9-15.3 14-22.6 1.1-1.5 3.7 0 2.6 1.5zM200.6 115.8a106 106 0 00-8.1 17c-.3.8-1 1.3-1.8 1-.7-.2-1.3-1.1-1-1.8 2.3-6.1 5.2-12 8.4-17.7.9-1.6 3.5-.1 2.5 1.5z" fill="#1B1B20"/><path d="M204.2 120.7a28.1 28.1 0 00-9-3.5c-.8-.2-1.3-1.1-1-1.8.3-.8 1-1.2 1.8-1 3.4.7 6.7 2 9.7 3.8.7.4 1 1.4.5 2.1-.4.5-1.3.8-2 .4zM196.2 126.4l-2-1a.8.8 0 01-.4-.4l-.3-.5a.6.6 0 010-.6l.2-.6c.2-.3.5-.6.9-.7l.4-.1.8.2 2 1 .4.4.3.5v.6l-.2.6c-.2.3-.5.6-.9.7l-.4.1-.8-.2zM189.3 128.6c-1.9 0-1.9-3 0-3s1.9 3 0 3z" fill="#1B1B20"/><path d="M196.9 132.7l-5.3-3.7c-.3-.2-.6-.5-.7-.9-.1-.4-.1-.8.2-1.2.4-.6 1.4-1 2.1-.5l5.3 3.7c.3.2.6.5.7.9.1.4.1.8-.2 1.2-.5.6-1.4 1-2.1.5zM203.9 113.8l-5-4c-.3-.2-.4-.7-.4-1.1 0-.4.2-.8.4-1.1.3-.3.7-.5 1.1-.4.4 0 .7.2 1.1.4l5 4c.3.2.4.7.4 1.1 0 .4-.2.8-.4 1.1-.3.3-.7.5-1.1.4-.5 0-.8-.1-1.1-.4zM186.3 126.5l-1-1-.3-.5-.1-.6.1-.6.3-.5.3-.2.8-.2.4.1.7.4 1 1 .3.5.1.6-.1.6-.3.5-.3.2-.8.2-.4-.1c-.3-.1-.6-.2-.7-.4zM199.8 140.5l12.1-1.7 6-.9c.8-.1 1.6-.1 2.1-.7.6-.7 1.1-1.7 1.7-2.5a123 123 0 0010.9-20.6c1.5-3.8 3-7.7 5.2-11.2l1.7 2.2c-3.2.6-6.3 1.6-9.3 2.6l-4.7 1.5-2.6.8c-.7.2-1.9.4-2.4.8-1.5 1.2-3.6-.9-2.1-2.1 1.3-1 3.1-1.4 4.7-1.9l5.4-1.8c3.4-1.1 6.7-2.3 10.3-2.9 1.2-.2 2.5 1 1.7 2.2-2.1 3.3-3.5 6.9-4.9 10.5a111.3 111.3 0 01-11.2 21.4c-.9 1.4-1.8 3.3-3.3 4.1-.8.4-1.7.4-2.5.6l-3.4.5-14.5 2.1c-.8.1-1.6-.2-1.8-1-.3-.9.1-1.9.9-2z" fill="#1B1B20"/><path d="M216.7 131.4l3.1-2.1 1.2 2.7c-1.6.2-4.7 1.1-4.8-1.5-.1-1.1.8-2.1 1.3-2.9l1.9-3.1.5 2.1c.4.3.7-.1.2.1l-.5.1h-1.2c-1.1-.3-1.5-1.5-1.1-2.5.6-1.8 2.3-3.6 3.8-4.8l1.1 2.6c-.7 0-1.3.1-1.9.3-.7.2-1.3-.1-1.7-.7-1.3-1.9-.3-4.3 1.4-5.6.9-.7 1.8-1.1 2.8-1.6 1.1-.6 2-1.4 2.8-2.3 1.3-1.4 3.4.7 2.1 2.1a13.4 13.4 0 01-4.3 3.2c-.8.4-2.9 1.4-2.1 2.6l-1.7-.7c.9-.3 1.8-.4 2.7-.4 1.2 0 2.1 1.7 1.1 2.6a11.6 11.6 0 00-3.3 4l.2-.8v.3l-.2-.8c-.5-.9-1.6-.3-.7-.6l.6-.1c.6-.1 1.1 0 1.6.3.7.4 1 1.3.5 2.1l-1.5 2.4c-.4.7-1.2 1.5-1.4 2.3v-.8.3l-.4-.7c-.4-.1-.5-.2-.2-.2l.5-.1 1.2-.2c1.6-.2 2.6 1.7 1.2 2.7l-3.1 2.1c-1.8 1.3-3.3-1.3-1.7-2.4zM176.2 141.4l3-1.6c.4-.2.8-.3 1.2-.2.4 0 .8.4 1 .7.2.4.3.7.2 1.2l-.7 1-3.1 1.5c-.4.2-.7.3-1.2.2-.3 0-.8-.4-1-.7-.2-.4-.3-.7-.1-1.1.1-.5.4-.9.7-1z" fill="#1B1B20"/><path d="M222 84.3c1-.2 1.7.2 2.6.4l2 .8c1.3.4 1.5 2 .4 2.8l-10.7 7.4-.1.2c-.5.6-1.3 1-2 .5-.6-.3-.9-1-.7-1.6 0-.4.2-.8.5-1.1l2.9-5 1.6-3c.5-.9 1-1.7 2.4-1.9.4 0 .8.1 1 .5h.2z" fill="#FFD000"/><path d="M211.5 97.6c5.4-4 11.5-7.2 16.6-11.8l.3 2.3c-2.6-1.2-5.2-2.6-7.8-3.7l.8.2h-.1l.6-.4c-1 .9-1.7 2-2.4 3.2-.8 1.3-1.4 2.5-2 3.8a52 52 0 00-3.7 8.1c-.6 1.9-3.5 1-2.9-.7a66.1 66.1 0 018.4-16.1c1-1 2-1 3.4-.4l7.2 3.5c.8.5 1 1.8.3 2.4-5.2 4.8-11.5 8.1-17.2 12.3-.6.4-1.6 0-2-.6-.5-.8-.2-1.7.5-2.1zM218.5 100.4L225 96c.7-.5 1.7-.2 2 .5.5.7.3 1.6-.5 2L220 103c-.7.4-1.7.1-2-.6-.5-.7-.3-1.5.5-2zM204.5 93.8c.5-1.3.8-2.4 1-3.7-.1 0-.2.2 0 .4v-1c0-.5 0-.8.5-1.2.3-.2.6-.4 1-.4.8 0 1.6.6 1.5 1.4-.1 1.8-.5 3.4-1 5-.1.4-.3.8-.7 1-.4.2-.8.3-1.2.1-.8 0-1.4-.9-1-1.6zM206.5 84.1c.5-1.8 3.4-1 2.9.8-.5 2-3.4 1.2-3-.8zM196 28.5c.3.3.6.7.7 1.1.2.4.2.8 0 1.4a3 3 0 01-.7 1l-.5.5-.8.4a1 1 0 01-1 0l-.8-.3-.4-.3c-.3-.2-.5-.5-.6-1-.2-.2-.2-.5-.2-.7v-.4c0-.3 0-.6.2-.9.1-.2.1-.4.3-.5.3-.6.7-.8 1.3-1 .6-.1 1.5-.1 2 .3l1 .8.2.7.2.7c0 .1 0 .4-.2.7l-.3.5-.1.3s-.2.1-.2.3a2 2 0 01-.6.4c-.1.1-.4.3-.7.3h-1.3c-.3 0-.6-.2-.7-.3l-.6-.4-.2-.2-.4-.4-.2-.1-.3-.7-.1-1 .1-1.2c.2-.7 1-1.2 1.5-1.4l.9-.1h.9c.3 0 .6.1.7.3l.3.1.6.6c.1.1.1.2.3.2l.3.3c.3.6.4 1 .4 1.5l-.1.8-.5.7c-.1.2-.4.3-.7.4-.3.2-.6.2-.9.2-.1 0-.4 0-.6-.2-.4-.1-.7-.2-1-.5-.2-.1-.3-.3-.3-.4-.1-.3-.3-.7-.3-1.1v-.2c0 .2 0 .5.2.6l-.2-.3.3.6-.1-.3.2.4-.2-.3c.1.2.2.3.4.3l-.3-.1.6.2-.3-.1.6.1h-.3l.6-.1h-.2l1.5-1.4-.2.4s0-.4.2-.5v.4c0-.1 0-.4-.2-.5l.2.2c-.2-.1-.2-.2-.3-.5l.1.1-.2-.4.1.1c0 .3-.1.2-.3 0l.2.2-.5-.2h.2-.6.1-.6.2l-.6.3.1-.1-.4.3c-.1 0-.3.2-.3.4l-.3.5V30l-.1.5v-.1l.1.5v-.1c.2.1.2.3.3.6l-.1-.2.3.4-.2-.1.4.3h-.1l.6.2h-.2c.2 0 .5 0 .6.2h-.1c.1 0 .4 0 .6-.2h-.2l.6-.2.7-.7.3-.6-.1.4.1-.5v.4l-.1-.5v.2c-.9-.4-1.8-1-2.7-1.3h.2l-.6.2h.2c-.2.2-.3.3-.5.3l.2-.1c-.2.1-.3.2-.3.4l.1-.2-.3.6v-.1l-.1.5v-.1l.1.5V31c.2.1.2.3.3.5v-.1c.2.1.3.3.3.4l-.4-.7c-.2-.3-.2-.5-.2-.8 0-.3 0-.6.2-.8l.4-.7.4-.3 1.2-.3c.2 0 .5 0 .6.2.4-.3.9-.2 1.2.1z" fill="#1B1B20"/><path d="M185 26.7c-1-3.5 1.5-11 9.5-9.5s6.5 13.5 0 17-8.5-4-9.5-7.5z" stroke="#1B1B20" stroke-width="3"/><path d="M182.5 175.4c-3.7-1.8-7.1-3.9-10.4-6.3-.5-.4-.7-1-.5-1.5-.4-.6-.4-1.5.4-2 4.5-3.2 11-12.5 14.4-16.8 1-1.2 2.9-.2 2.7 1.2-.7 6.3-3.8 18-4.5 24.3-.1 1-1.3 1.6-2.1 1.1z" fill="#FFD000"/><path d="M168.2 165c6.8-6.2 12-14 18.9-20.3 1.4-1.3 3.1 1.2 1.7 2.5-6.8 6.2-12 14-18.8 20.3-1.4 1.3-3.2-1.1-1.8-2.5z" fill="#1B1B20"/><path d="M178.3 163.4c2.7-5.5 5.2-11 7.8-16.6.9-1.7 3.6-.4 2.8 1.3l-7.8 16.5c-.9 1.7-3.6.5-2.8-1.2z" fill="#1B1B20"/><path d="M169.5 165.5l7.8-2.8c1.3-.4 3-1.1 3.7.6l.6 2.2c1.2 3.4 3.5 6.5 4 10.1.3 1.9-2.7 2.2-3 .3-.3-1.8-1.4-4-2.3-5.8a28.5 28.5 0 01-2-5.5l-.1-.2 1 .7h-.2l.8-.2c-1.6.4-3 1-4.6 1.6l-4.7 1.6c-1.7.8-2.8-2-1-2.6z" fill="#1B1B20"/><path d="M190 145.6c.8 2.6.5 5.5.2 8.2-.3 2.6-.8 5.1-1.3 7.7-.6 2.7-1 5.6-1.5 8.3-.4 2-.4 4.2-1 6.3-.2 1-1 1.6-2 1.2l-5.2-2.3c-3.6-1.8-7.1-4-10.7-6-1.6-1-.4-3.7 1.2-2.7 3.5 2 7 4.2 10.7 6l5.2 2.2-2 1.2c.4-1.9.4-4 .9-6l1.4-7.9c.5-2.5 1-5 1.3-7.5.3-2.5.8-5.2 0-7.6-.5-1.9 2.3-3 2.8-1.1zM197.7 146.2c0 4 0 8-.3 12.1 0 .8-.4 1.6-1.3 1.7-.7.2-1.6-.5-1.7-1.3 0-4 0-8 .3-12.1 0-.8.4-1.6 1.3-1.7.8-.1 1.7.4 1.7 1.3z" fill="#1B1B20"/></g><defs><clipPath id="clip0"><path fill="#fff" transform="matrix(-1 0 0 1 249 6)" d="M0 0h235.3v187.1H0z"/></clipPath></defs></svg>